<svg xmlns="http://www.w3.org/2000/svg" viewBox="0 0 100 60">
  <g fill="#8b3dff">
    <rect x="5" y="25" width="4" height="10" rx="2" />
    <rect x="11" y="20" width="4" height="20" rx="2" />
    <rect x="17" y="15" width="4" height="30" rx="2" />
    <rect x="23" y="12" width="4" height="36" rx="2" />
    <rect x="29" y="10" width="4" height="40" rx="2" />
    <rect x="35" y="8" width="4" height="44" rx="2" />
    <rect x="41" y="7" width="4" height="46" rx="2" />
    <rect x="47" y="6" width="4" height="48" rx="2" />
    <rect x="53" y="7" width="4" height="46" rx="2" />
    <rect x="59" y="8" width="4" height="44" rx="2" />
    <rect x="65" y="10" width="4" height="40" rx="2" />
    <rect x="71" y="12" width="4" height="36" rx="2" />
    <rect x="77" y="15" width="4" height="30" rx="2" />
    <rect x="83" y="20" width="4" height="20" rx="2" />
    <rect x="89" y="25" width="4" height="10" rx="2" />
  </g>
</svg>
